<?xml version="1.0" encoding="UTF-8"?>
<!DOCTYPE svg PUBLIC "-//W3C//DTD SVG 1.1//EN" "http://www.w3.org/Graphics/SVG/1.1/DTD/svg11.dtd">
<!-- Creator: CorelDRAW X8 -->
<svg xmlns="http://www.w3.org/2000/svg" xml:space="preserve" width="108.946mm" height="29.9597mm" version="1.1" style="shape-rendering:geometricPrecision; text-rendering:geometricPrecision; image-rendering:optimizeQuality; fill-rule:evenodd; clip-rule:evenodd"
viewBox="0 0 8380 2305"
 xmlns:xlink="http://www.w3.org/1999/xlink">
 <defs>
  <style type="text/css">
   <![CDATA[
    .fil0 {fill:none}
    .fil4 {fill:#048DB3}
    .fil1 {fill:#048DB3}
    .fil2 {fill:#0D3B51}
    .fil5 {fill:#848688}
    .fil3 {fill:#E99921}
    .fil6 {fill:#96989A;fill-rule:nonzero}
   ]]>
  </style>
 </defs>
 <g id="Capa_x0020_1">
  <metadata id="CorelCorpID_0Corel-Layer"/>
  <g id="_1045039840">
   <rect class="fil0" width="8380" height="2305"/>
   <g>
    <polygon class="fil1" points="1572,419 1971,1073 1853,1260 2095,1674 1969,1874 1189,1874 1063,1674 545,1674 419,1474 802,819 1061,819 1313,419 "/>
    <rect class="fil2" transform="matrix(0.284287 -0 -0.276446 0.472833 927.562 1019.52)" width="1824" height="1384"/>
    <rect class="fil3" transform="matrix(0.5054 -0 0.29749 0.472833 801.625 819.351)" width="1026" height="423"/>
    <polygon class="fil4" points="928,1020 802,819 419,1474 545,1674 "/>
    <polygon class="fil4" points="1061,819 1313,419 1695,1073 1443,1474 1312,1249 1446,1020 1320,819 "/>
    <polygon class="fil3" points="1313,419 1572,419 1971,1073 1695,1073 "/>
    <polygon class="fil2" points="1971,1073 1719,1474 1443,1474 1695,1073 "/>
    <polygon class="fil3" points="1853,1260 2095,1674 1317,1674 1050,1249 1312,1249 1443,1474 1719,1474 "/>
    <polygon class="fil4" points="937,1474 1189,1874 1317,1674 1050,1249 "/>
    <polygon class="fil2" points="1189,1874 1317,1674 2095,1674 1969,1874 "/>
    <g>
     <path class="fil5" d="M2409 1131l0 3c0,61 3,91 23,148 7,17 14,34 23,49 9,14 20,31 31,43 7,6 10,12 17,18 20,16 29,25 53,39 37,20 79,33 122,35l34 0c35,-2 69,-10 100,-26 20,-10 39,-23 55,-38 41,-40 67,-79 81,-137 4,-14 10,-37 10,-53l-42 0c0,47 -23,97 -50,133 -11,15 -24,28 -39,40 -29,23 -72,44 -113,44 -48,0 -90,-3 -130,-27 -58,-35 -92,-74 -115,-144 -24,-70 -25,-150 -1,-223 11,-33 25,-61 45,-85 42,-53 106,-88 174,-88 41,0 63,0 102,16 20,8 40,21 56,34 8,7 15,14 21,22l19 28c7,12 15,33 18,48 4,19 -5,16 44,16 0,-28 -22,-76 -36,-97 -4,-6 -7,-11 -11,-16 -10,-13 -27,-31 -40,-40 -6,-4 -11,-8 -16,-11 -38,-22 -79,-34 -122,-37l-38 0c-39,3 -79,13 -115,28 -25,12 -45,31 -64,45 -9,7 -11,12 -18,19 -41,43 -78,130 -78,214z"/>
     <path class="fil5" d="M5286 1429c-36,0 -71,0 -97,-25 -18,-18 -30,-39 -30,-66 0,-139 202,-85 266,-125 5,-3 2,-3 9,-5 0,24 2,69 -1,91 -12,76 -69,130 -147,130zm-141 -281l37 0c6,-71 52,-115 123,-115 38,0 66,1 95,23 21,16 35,38 35,70 0,36 -6,54 -34,64 -20,6 -62,12 -87,13 -29,1 -64,6 -88,12 -38,9 -71,28 -89,60 -20,37 -17,90 -1,123 37,76 167,80 235,39 15,-9 24,-15 36,-27 15,-16 21,-30 27,-37 0,49 6,79 61,79 12,0 18,-2 28,-3l0 -32c-55,5 -52,8 -52,-98 0,-34 2,-209 -4,-234 -4,-19 -16,-40 -29,-50 -18,-14 -29,-20 -52,-27 -58,-18 -147,-10 -193,29 -49,41 -44,104 -48,111z"/>
     <path class="fil5" d="M6232 1108c0,44 11,74 44,96 90,59 257,23 257,138 0,33 -19,53 -39,66 -40,26 -117,29 -163,10 -16,-6 -30,-17 -41,-27l-6 -7c-4,-4 -4,-4 -7,-8 -5,-7 -8,-13 -12,-20 -6,-14 -12,-34 -12,-53l-37 0c0,106 84,160 179,160 91,0 174,-35 174,-125 0,-85 -62,-111 -133,-125 -57,-11 -167,-24 -167,-93l0 -12c0,-50 62,-75 114,-75 42,0 72,2 106,29 20,17 31,54 31,81l37 0c0,-8 -2,-27 -3,-33 -3,-12 -5,-21 -9,-30 -15,-37 -46,-61 -84,-71 -67,-19 -174,-12 -213,47 -8,13 -16,32 -16,52z"/>
     <path class="fil5" d="M3925 1112c0,41 12,68 44,91 56,42 179,38 228,76 55,42 38,150 -94,150 -45,0 -84,-3 -118,-37 -23,-23 -39,-54 -39,-89l-37 0c0,42 15,78 41,107 74,85 313,73 313,-70 0,-87 -61,-112 -135,-127 -35,-7 -72,-14 -104,-25 -30,-10 -62,-32 -62,-68 0,-32 9,-52 37,-68 48,-27 137,-28 182,9 9,8 19,22 23,33 6,14 9,30 9,49l37 0c0,-171 -204,-160 -275,-118 -27,16 -50,44 -50,87z"/>
     <path class="fil5" d="M3220 1429l-23 0c-49,0 -92,-32 -113,-61 -68,-90 -53,-258 46,-316 64,-37 154,-24 205,43 66,88 53,254 -46,314 -16,10 -43,20 -69,20zm-215 -200c0,177 138,278 290,215 10,-4 24,-12 32,-19 11,-8 17,-15 27,-25 33,-33 58,-104 58,-151 0,-61 -3,-103 -35,-156 -19,-32 -46,-59 -81,-75 -69,-32 -162,-23 -215,27l-21 21c-17,19 -29,46 -39,70 -8,22 -16,63 -16,93z"/>
     <path class="fil5" d="M4336 1285c0,43 8,101 37,131 33,34 69,47 122,47 49,0 105,-24 132,-58 13,-18 12,-17 21,-34l3 81 37 0 0 -442 -37 0 0 249c0,62 -27,124 -82,154 -47,26 -136,26 -170,-23 -18,-26 -26,-55 -26,-98l0 -282 -37 0 0 275z"/>
     <path class="fil5" d="M3521 1098l0 -88 -37 0 0 442 37 0 0 -239c0,-51 14,-96 37,-125 26,-33 65,-55 109,-55 29,0 41,-1 68,10 15,6 25,14 35,25 19,21 28,61 28,91l0 293 37 0 0 -290c0,-31 -7,-72 -22,-96 -3,-5 -5,-9 -8,-12 -7,-11 -11,-14 -19,-21 -28,-24 -69,-34 -107,-34 -57,0 -99,22 -133,59 -17,17 -21,33 -25,40z"/>
     <path class="fil5" d="M5606 1098l0 -88 -35 0 0 442 35 0 0 -228c0,-77 21,-137 80,-173 46,-28 139,-28 176,25 22,33 22,72 22,113l0 233c0,6 0,12 0,18 -1,15 -4,12 37,12l0 -297c0,-187 -213,-188 -290,-97 -5,5 -9,12 -13,18 -5,7 -8,16 -12,22z"/>
     <path class="fil5" d="M6045 878l0 132 -80 0 0 31 80 0 0 313c0,19 3,31 8,45 8,26 30,44 57,50 25,5 18,2 37,4l30 -1 0 -31c-57,0 -95,-3 -95,-71l0 -309 95 0 0 -31 -95 0 0 -137c-23,0 -37,-4 -37,5z"/>
     <path class="fil5" d="M4955 878l0 132 -81 0 0 31 81 0 0 309c0,35 6,58 29,81 26,26 71,21 103,21l0 -31c-27,0 -58,0 -76,-15 -16,-15 -19,-39 -19,-61l0 -304 95 0 0 -31 -95 0 0 -137c-23,0 -37,-4 -37,5z"/>
     <polygon class="fil5" points="4787,1452 4823,1452 4823,839 4787,839 "/>
    </g>
    <path class="fil6" d="M5173 1720l-1 0c-3,0 -7,0 -10,0 -2,0 -6,0 -10,0 -8,28 -33,91 -46,119l-1 0c-12,-29 -33,-84 -45,-119 -4,0 -10,0 -14,0 -4,0 -11,0 -17,0l-1 0c21,46 55,127 63,150 -7,20 -24,55 -41,86l1 1c4,-1 9,-1 12,-1 3,0 7,0 10,1 8,-25 22,-60 34,-88 25,-59 50,-114 66,-149zm175 75c0,-47 -26,-79 -77,-79 -50,0 -78,34 -78,79 0,39 21,78 78,78 47,0 77,-33 77,-78zm-29 0c0,31 -12,68 -48,68 -37,0 -49,-39 -49,-68 0,-32 12,-69 49,-69 36,0 48,37 48,69zm201 74c-1,-21 -2,-46 -2,-65l0 -13c0,-18 1,-54 2,-71 -4,0 -10,0 -15,0 -5,0 -11,0 -14,0 1,18 2,45 2,64l0 21c0,30 -15,51 -44,51 -29,0 -33,-25 -33,-47l0 -10c0,-23 1,-60 2,-79 -3,0 -9,0 -14,0 -5,0 -12,0 -15,0 1,12 2,40 2,54l0 4c0,15 -1,30 -1,40 0,30 10,54 50,54 22,0 40,-11 52,-29l1 0c0,9 0,18 -1,26 4,0 9,0 13,0 5,0 10,0 15,0zm205 -47c0,-23 -15,-33 -40,-42 -18,-5 -30,-12 -30,-29 0,-17 13,-24 27,-24 18,0 24,9 28,22l4 0c2,-8 4,-19 7,-26 -8,-4 -23,-7 -38,-7 -23,0 -51,12 -51,43 0,27 17,35 35,41 23,8 34,14 34,33 0,19 -15,28 -31,28 -15,0 -30,-8 -34,-24l-5 0c-3,9 -5,20 -6,26 8,4 25,9 40,9 33,0 60,-18 60,-50zm116 51c50,0 72,-40 72,-80 0,-39 -18,-77 -64,-77 -32,0 -49,20 -56,33l-1 0c0,-7 1,-21 1,-29 -4,0 -9,0 -13,0 -5,0 -10,0 -15,0 1,21 2,66 2,85l0 32c0,32 -1,95 -3,120 4,-1 11,-1 16,-1 5,0 11,0 15,1 -2,-25 -3,-57 -3,-88l0 -18 2 0c7,11 22,22 47,22zm43 -79c0,36 -16,66 -48,66 -29,0 -44,-21 -44,-56 0,-14 0,-27 4,-39 5,-19 22,-34 43,-34 33,0 45,32 45,63zm201 -14c0,-34 -18,-64 -63,-64 -47,0 -75,34 -75,80 0,49 31,77 77,77 21,0 41,-6 54,-15 0,-4 1,-12 3,-17l-3 -1c-11,13 -29,20 -47,20 -36,0 -55,-26 -55,-58 0,-3 0,-6 1,-10l36 0c17,0 45,1 70,1l2 -2c0,-3 0,-8 0,-11zm-26 0c-10,1 -33,1 -46,1l-36 0c2,-23 13,-55 44,-55 32,0 38,32 38,54zm192 87l0 -7c-1,0 -3,0 -5,0 -13,0 -17,-9 -17,-24 0,-16 1,-49 1,-64 0,-32 -6,-56 -52,-56 -19,0 -40,6 -51,17 1,6 3,16 3,26l6 1c3,-21 15,-33 33,-33 26,0 35,15 35,37l0 4c0,7 -3,10 -46,18 -28,5 -44,18 -44,44 0,29 20,41 42,41 21,0 38,-11 48,-23 2,13 9,22 25,22 8,0 16,-1 22,-3zm-46 -81c0,16 -1,34 -2,45 -4,17 -21,26 -36,26 -14,0 -26,-7 -26,-30 0,-26 18,-33 64,-41zm207 81c-23,-23 -51,-57 -73,-85 17,-17 44,-44 65,-62l-1 -1c-6,1 -18,1 -26,1 -12,19 -40,48 -54,60 -5,4 -9,5 -13,5l0 -43c0,-29 0,-85 2,-110 -3,1 -10,1 -15,1 -5,0 -11,0 -15,-1 2,25 3,81 3,110l0 32c0,28 -1,70 -3,95 4,0 10,0 15,0 5,0 12,0 15,0 -2,-18 -2,-52 -2,-72l0 -5c2,0 4,0 7,3 13,14 42,50 60,75 5,-1 15,-1 21,-1 4,0 9,0 13,0l1 -2zm58 -26c0,-7 -6,-9 -14,-9 -10,0 -12,5 -14,12 -4,16 -16,51 -24,76l0 0 7 2c9,-15 32,-54 42,-71 3,-4 3,-7 3,-10zm331 -121l-1 0c-3,0 -6,0 -10,0 -2,0 -5,0 -9,0 -7,29 -31,91 -42,120l-1 0c-13,-35 -29,-84 -40,-120 -2,0 -7,0 -10,0 -3,0 -7,0 -10,0 -7,27 -29,91 -39,120l-1 0c-13,-35 -30,-84 -40,-120 -4,0 -10,0 -15,0 -3,0 -9,0 -14,0l-1 0c19,48 46,125 53,149 2,0 7,0 10,0 2,0 8,0 10,0 10,-29 30,-85 41,-116l2 0c15,45 32,95 37,116 3,0 7,0 10,0 3,0 9,0 11,0 10,-30 39,-102 59,-149zm159 60c0,-34 -19,-64 -63,-64 -48,0 -75,34 -75,80 0,49 31,77 77,77 20,0 41,-6 53,-15 0,-4 2,-12 3,-17l-3 -1c-10,13 -28,20 -47,20 -36,0 -54,-26 -54,-58 0,-3 0,-6 0,-10l37 0c17,0 45,1 69,1l2 -2c1,-3 1,-8 1,-11zm-27 0c-10,1 -33,1 -46,1l-35 0c1,-23 13,-55 44,-55 32,0 37,32 37,54zm261 60l-4 -2c-9,14 -25,21 -44,21 -35,0 -54,-26 -54,-65 0,-34 15,-67 53,-67 20,0 33,11 37,29l5 0c2,-9 5,-20 8,-27 -9,-6 -29,-13 -51,-13 -41,0 -81,24 -81,78 0,57 39,79 77,79 21,0 40,-7 51,-16 0,-5 1,-14 3,-17zm121 -119l-1 -1c-4,-2 -10,-2 -15,-2 -18,0 -33,11 -44,34l-1 0c0,-9 0,-24 1,-32 -3,0 -8,0 -13,0 -5,0 -11,0 -15,0 2,18 3,46 3,65l0 12c0,19 -1,55 -3,72 4,0 10,0 15,0 5,0 12,0 15,0 -1,-18 -2,-52 -2,-71l0 -13c0,-25 11,-47 34,-47 6,0 13,2 17,5l2 0c1,-6 5,-17 7,-22zm148 59c0,-34 -19,-64 -64,-64 -47,0 -74,34 -74,80 0,49 30,77 76,77 21,0 41,-6 54,-15 0,-4 1,-12 3,-17l-3 -1c-11,13 -28,20 -47,20 -36,0 -54,-26 -54,-58 0,-3 0,-6 0,-10l37 0c16,0 44,1 69,1l2 -2c0,-3 1,-8 1,-11zm-27 0c-10,1 -33,1 -46,1l-35 0c1,-23 12,-55 44,-55 32,0 37,32 37,54zm192 87l0 -7c-1,0 -3,0 -5,0 -12,0 -17,-9 -17,-24 0,-16 1,-49 1,-64 0,-32 -6,-56 -51,-56 -20,0 -41,6 -52,17 1,6 3,16 4,26l5 1c3,-21 15,-33 33,-33 26,0 36,15 36,37l0 4c0,7 -4,10 -47,18 -27,5 -44,18 -44,44 0,29 21,41 42,41 21,0 38,-11 48,-23 2,13 10,22 26,22 7,0 15,-1 21,-3zm-46 -81c0,16 0,34 -1,45 -5,17 -22,26 -36,26 -14,0 -27,-7 -27,-30 0,-26 18,-33 64,-41zm146 75l0 -8 -1 0c-4,2 -12,4 -19,4 -18,0 -22,-14 -22,-36 0,-27 1,-62 2,-89l39 0 0 -11 -38 0c0,-10 1,-31 2,-44l-2 -1c-6,5 -19,10 -27,12 1,13 1,26 1,33l-25 0 0 11 25 0c0,37 -2,77 -2,100 0,25 8,39 31,39 12,0 26,-3 36,-10zm158 -81c0,-34 -19,-64 -64,-64 -47,0 -75,34 -75,80 0,49 31,77 77,77 21,0 41,-6 54,-15 0,-4 1,-12 3,-17l-3 -1c-11,13 -29,20 -47,20 -36,0 -54,-26 -54,-58 0,-3 0,-6 0,-10l36 0c17,0 45,1 70,1l2 -2c0,-3 1,-8 1,-11zm-27 0c-10,1 -33,1 -46,1l-36 0c2,-23 13,-55 44,-55 32,0 38,32 38,54zm102 74c0,-10 -8,-19 -18,-19 -10,0 -19,9 -19,19 0,10 9,18 19,18 10,0 18,-8 18,-18z"/>
    <path class="fil5" d="M7885 843l0 102 66 0 0 -120c-13,0 -28,0 -41,0 -16,0 -23,3 -25,18zm-402 347c11,-74 63,-143 144,-142 81,1 135,64 140,142l-284 0zm286 94c-14,53 -16,64 -48,97 -25,26 -64,36 -112,33 -79,-6 -123,-79 -128,-161l354 -1c3,-76 -5,-129 -40,-182 -26,-39 -72,-75 -141,-84 -139,-17 -222,84 -237,207 -18,145 45,256 166,281 126,26 253,-61 248,-190l-62 0zm-657 114c-11,7 -148,5 -169,2 -3,-12 -4,-474 -1,-508 20,-4 170,-4 180,2 51,-5 116,32 148,77 65,91 66,302 -35,382 -30,23 -82,50 -123,45zm-241 68c29,3 168,1 208,1 69,0 117,-10 169,-40 85,-49 140,-145 138,-281 -1,-62 -9,-124 -34,-175 -23,-47 -59,-85 -101,-109 -48,-27 -109,-37 -172,-37 -36,0 -185,-2 -208,1l0 640zm1080 -471c-22,-1 -59,-6 -65,12 -4,11 -2,339 -2,377 0,80 -16,85 67,83l0 -472z"/>
   </g>
  </g>
 </g>
</svg>
